<?xml version="1.0" encoding="utf-8"?>
<!-- Generator: Adobe Illustrator 24.1.1, SVG Export Plug-In . SVG Version: 6.00 Build 0)  -->
<svg version="1.1" id="Layer_1" xmlns="http://www.w3.org/2000/svg" xmlns:xlink="http://www.w3.org/1999/xlink" x="0px" y="0px"
	 viewBox="0 0 512 512" style="enable-background:new 0 0 512 512;" xml:space="preserve">
<style type="text/css">
	.st0{fill:#333333;}
</style>
<g id="XMLID_2_">
	<path id="XMLID_6_" class="st0" d="M393.8,241.6l3.7,69.8c0.9,10.2-5.6,19.5-18.6,28.9c-13,8.4-29.8,15.8-52.1,20.5
		s-45.6,7.4-71.7,7.4s-49.3-2.8-71.7-7.4s-39.1-12.1-52.1-20.5c-13-8.4-18.6-18.6-18.6-28.9l3.7-69.8l127.5,40
		c3.7,0.9,6.5,1.9,10.2,1.9c3.7,0,7.4-0.9,10.2-1.9L393.8,241.6z M512,169c0,3.7-1.9,5.6-4.7,6.5l-249.5,79.1c-0.9,0-0.9,0-1.9,0
		c-0.9,0-1.9,0-1.9,0L108.9,209c-6.5,4.7-11.2,13-15.8,25.1c-3.7,11.2-6.5,25.1-7.4,40c9.3,5.6,14,13,14,24.2
		c0,10.2-4.7,17.7-13,24.2l13,95.9c0,1.9,0,3.7-1.9,5.6c-0.9,1.9-2.8,2.8-5.6,2.8H49.3c-1.9,0-3.7-0.9-5.6-2.8
		c-1.9-1.9-1.9-3.7-1.9-5.6l13-95.9c-8.4-5.6-13-14-13-24.2c0-11.2,4.7-18.6,14.9-24.2c1.9-30.7,9.3-54.9,21.4-73.5L4.7,176.4
		c-3.7-0.9-4.7-3.7-4.7-6.5s1.9-5.6,4.7-6.5l248.6-78.2c0.9,0,0.9,0,1.9,0c0.9,0,1.9,0,1.9,0l250.4,77.3
		C510.1,163.4,512,166.2,512,169z"/>
</g>
</svg>
